<?xml version="1.0" encoding="iso-8859-1"?>
<!-- Generator: Adobe Illustrator 19.0.0, SVG Export Plug-In . SVG Version: 6.00 Build 0)  -->
<svg version="1.1" id="Layer_1" xmlns="http://www.w3.org/2000/svg" xmlns:xlink="http://www.w3.org/1999/xlink" x="0px" y="0px"
	 viewBox="0 0 496.2 496.2" style="enable-background:new 0 0 496.2 496.2;" xml:space="preserve">
<path style="fill:#EA4949;" d="M0,248.1C0,111.1,111.1,0,248.1,0s248.1,111.1,248.1,248.1S385.1,496.2,248.1,496.2S0,385.1,0,248.1z
	"/>
<path style="fill:#BC7F04;" d="M172.3,135.5c0,0,3.8-5.9,7.9-5.9c4,0,3.6,17.4,3.6,17.4L172.3,135.5z"/>
<circle style="fill:#E2A01A;" cx="249" cy="117.9" r="69.4"/>
<path style="fill:#EDA932;" d="M199.9,68.8c27.1-27.1,71.1-27.1,98.2,0S227,194.1,199.9,167C172.8,139.8,172.8,95.9,199.9,68.8z"/>
<path style="fill:#F4BA5B;" d="M273.3,55.7c-36.6-11.5-75.5,8.9-87,45.4C174.8,137.7,309.9,67.1,273.3,55.7z"/>
<path style="fill:#FFCD5C;" d="M172.3,135.5c0,0,21.9,103.8,38.9,131.7l39.5,46.7l20.9-51.4l-17.8-130.7c0,0-10.3,29.8-36.4,30.4
	c-18.2,0.4-22.3-6.5-32.4-23.1C183.6,137,176.7,134.3,172.3,135.5z"/>
<path style="fill:#F9C04E;" d="M189,171.3c0,0,22.2,60.3,51.7,111.9C240.7,283.2,214.6,211.7,189,171.3z"/>
<path style="fill:#F9BB41;" d="M211.1,267.2c0,0,4.4,52.2,6.2,78.3l31.4-40.1L211.1,267.2z"/>
<path style="fill:#E5A70C;" d="M288.8,162.8c9.7-5.1,23.7-10.3,24.3-44.9l7.3,5.5l-3.6,36.4l-21.9,43.1L270,190.8l-6.1-24.9
	C264,165.8,279.1,167.8,288.8,162.8z"/>
<path style="fill:#FFC431;" d="M273.7,319.4c0,0,9.1,42.1,15.8,53.4c0,0-32.8,23.7-80.1,0l1.8-6.7L273.7,319.4z"/>
<path style="fill:#FCC74F;" d="M248.8,319.4v63.9c-11.4-0.3-24.7-3.1-39.5-10.5l1.8-6.7L248.8,319.4z"/>
<path style="fill:#80BC9C;" d="M299.4,395.3c0,0-18.4,5.4-50,5.4c-31.7,0-49.9-5.4-49.9-5.4l9.9-22.5c0,0,15.2,5.4,40,5.4
	s40.1-5.4,40.1-5.4L299.4,395.3z"/>
<path style="fill:#9ED8B9;" d="M249.3,400.7c-31.7,0-49.9-5.4-49.9-5.4l9.9-22.5c0,0,15.2,5.4,40,5.4V400.7z"/>
<path style="fill:#80BC9C;" d="M316.7,435.8l-6.9-16.8c-0.6-1.5-29.3-9.1-60.5-9.1s-59.7,7.6-60.3,9.1l-6.9,16.8
	c-0.3,0.8-0.3,1.8,0,2.6s1,1.4,1.8,1.7c1,0.3,24.5,7.7,65.5,7.7s64.6-7.4,65.6-7.7c0.8-0.3,1.4-0.9,1.8-1.7S317.1,436.6,316.7,435.8
	z"/>
<path style="fill:#9ED8B9;" d="M249.3,409.9c-31.2,0-59.7,7.6-60.3,9.1l-6.9,16.8c-0.3,0.8-0.3,1.8,0,2.6s1,1.4,1.8,1.7
	c1,0.3,24.5,7.7,65.5,7.7v-37.9H249.3z"/>
<path style="fill:#FFD16C;" d="M309.8,419c0,0-22.2,6.5-60.5,6.5S189,419,189,419l12-27.1c0,0,18.4,6.5,48.4,6.5s48.5-6.5,48.5-6.5
	L309.8,419z"/>
<path style="fill:#FCD486;" d="M249.3,425.5c-38.3,0-60.3-6.5-60.3-6.5l12-27.1c0,0,18.4,6.5,48.4,6.5v27.1H249.3z"/>
<path style="fill:#D89319;" d="M302.2,182.5c0,0-8.5,19.4-11.5,19.4s-18.2-12.4-18.2-12.4l-4.7-27.9L302.2,182.5z"/>
<path style="fill:#E2A01A;" d="M274.3,165.8c0,0-4.6,5.2-1.2,8.2c3.3,3,7.6,6.7,10.9,7.9s10.6,3.9,13.1,3.3c2.4-0.6,6.7-2.1,3.6-9.1
	c-3-7-5.8-12.7-14.3-13.1C277.9,162.8,277,163.7,274.3,165.8z"/>
<path style="fill:#F2B408;" d="M313.1,117.9c0,0,4.2-4.2,6.1-2.4c1.8,1.8,8.5,13.4,1.8,35.8c-6.7,22.5-15.2,58.3-19.4,69.8
	c-4.2,11.5-31-9.1-31-9.1l0.8-22.7c0,0,3.6-0.1,9,2c5.5,2.1,12.1,9.1,12.1,9.1S334.4,131.2,313.1,117.9z"/>
<path style="fill:#FFC431;" d="M250,128.8c0,0,16.4,116.6,5.5,157.9l15.7-41.6l0.7-33l0.6-22.5c0,0-12.1-74.7-16.4-74.7
	C251.8,114.8,250.3,120,250,128.8z"/>
<path style="fill:#E2A50C;" d="M217.2,344.9c0,0,54-67.4,54.6-133c0,0,12.1,10.3,29.7,9.1c0,0-11.5,25.5-11.5,51
	c0,0,0,80.2-78.9,94.1L217.2,344.9z"/>
<path style="fill:#D89A0F;" d="M217.3,355.3c0,0,69.6-72.3,70.1-124.4C287.4,230.9,299.8,283.2,217.3,355.3z"/>
<g>
</g>
<g>
</g>
<g>
</g>
<g>
</g>
<g>
</g>
<g>
</g>
<g>
</g>
<g>
</g>
<g>
</g>
<g>
</g>
<g>
</g>
<g>
</g>
<g>
</g>
<g>
</g>
<g>
</g>
</svg>
